<?xml version="1.0" encoding="UTF-8" standalone="no"?>
<!DOCTYPE svg PUBLIC "-//W3C//DTD SVG 1.1//EN"
 "http://www.w3.org/Graphics/SVG/1.1/DTD/svg11.dtd">
<!-- Generated by graphviz version 2.47.3 (20210619.1520)
 -->
<!-- Title: SeedLang Pages: 1 -->
<svg width="636pt" height="541pt"
 viewBox="0.00 0.00 635.50 541.00" xmlns="http://www.w3.org/2000/svg" xmlns:xlink="http://www.w3.org/1999/xlink">
<g id="graph0" class="graph" transform="scale(1 1) rotate(0) translate(4 537)">
<title>SeedLang</title>
<polygon fill="white" stroke="transparent" points="-4,4 -4,-537 631.5,-537 631.5,4 -4,4"/>
<g id="clust5" class="cluster">
<title>cluster_Sandbox</title>
<polygon fill="none" stroke="black" stroke-dasharray="1,5" points="8,-8 8,-169 425,-169 425,-8 8,-8"/>
<text text-anchor="middle" x="216.5" y="-153.8" font-family="Arial" font-size="14.00">Sandbox</text>
</g>
<!-- NaturalProgrammingExtensions -->
<g id="node1" class="node">
<title>NaturalProgrammingExtensions</title>
<path fill="none" stroke="black" d="M449,-533C449,-533 239,-533 239,-533 233,-533 227,-527 227,-521 227,-521 227,-502 227,-502 227,-496 233,-490 239,-490 239,-490 449,-490 449,-490 455,-490 461,-496 461,-502 461,-502 461,-521 461,-521 461,-527 455,-533 449,-533"/>
<text text-anchor="middle" x="344" y="-507.8" font-family="Arial" font-size="14.00">Natural Programming Extensions</text>
</g>
<!-- SeedAST -->
<g id="node3" class="node">
<title>SeedAST</title>
<path fill="none" stroke="black" d="M333.22,-432.23C333.22,-432.23 266.78,-399.77 266.78,-399.77 261.39,-397.13 261.39,-391.87 266.78,-389.23 266.78,-389.23 333.22,-356.77 333.22,-356.77 338.61,-354.13 349.39,-354.13 354.78,-356.77 354.78,-356.77 421.22,-389.23 421.22,-389.23 426.61,-391.87 426.61,-397.13 421.22,-399.77 421.22,-399.77 354.78,-432.23 354.78,-432.23 349.39,-434.87 338.61,-434.87 333.22,-432.23"/>
<text text-anchor="middle" x="344" y="-390.8" font-family="Arial" font-size="14.00">SeedAST</text>
</g>
<!-- NaturalProgrammingExtensions&#45;&gt;SeedAST -->
<g id="edge1" class="edge">
<title>NaturalProgrammingExtensions&#45;&gt;SeedAST</title>
<path fill="none" stroke="black" d="M344,-489.94C344,-478.18 344,-462.85 344,-447.97"/>
<polygon fill="black" stroke="black" points="347.5,-447.79 344,-437.79 340.5,-447.79 347.5,-447.79"/>
</g>
<!-- SeedBlock -->
<g id="node2" class="node">
<title>SeedBlock</title>
<polygon fill="none" stroke="black" points="237.5,-439 234.5,-443 213.5,-443 210.5,-439 60.5,-439 60.5,-350 237.5,-350 237.5,-439"/>
<text text-anchor="middle" x="149" y="-413.8" font-family="Arial" font-size="14.00">SeedBlock</text>
<text text-anchor="middle" x="149" y="-382.8" font-family="Arial" font-size="14.00">Block Renderer/Editor</text>
<text text-anchor="middle" x="149" y="-367.8" font-family="Arial" font-size="14.00">Block Exchange Format</text>
</g>
<!-- SeedBlock&#45;&gt;SeedAST -->
<g id="edge2" class="edge">
<title>SeedBlock&#45;&gt;SeedAST</title>
<path fill="none" stroke="black" d="M237.74,-361.39C256,-360.27 274.26,-362.66 292.53,-368.56"/>
<polygon fill="black" stroke="black" points="291.48,-371.91 302.08,-371.97 293.83,-365.31 291.48,-371.91"/>
</g>
<!-- SeedAST&#45;&gt;SeedBlock -->
<g id="edge3" class="edge">
<title>SeedAST&#45;&gt;SeedBlock</title>
<path fill="none" stroke="black" d="M302.08,-417.03C283.98,-424.09 265.89,-427.7 247.79,-427.87"/>
<polygon fill="black" stroke="black" points="247.83,-424.37 237.74,-427.61 247.65,-431.37 247.83,-424.37"/>
</g>
<!-- SeedX -->
<g id="node4" class="node">
<title>SeedX</title>
<polygon fill="none" stroke="black" points="555.5,-454 552.5,-458 531.5,-458 528.5,-454 450.5,-454 450.5,-335 555.5,-335 555.5,-454"/>
<text text-anchor="middle" x="503" y="-428.8" font-family="Arial" font-size="14.00">SeedX</text>
<text text-anchor="middle" x="503" y="-397.8" font-family="Arial" font-size="14.00">SeedPython</text>
<text text-anchor="middle" x="503" y="-382.8" font-family="Arial" font-size="14.00">SeedJS</text>
<text text-anchor="middle" x="503" y="-367.8" font-family="Arial" font-size="14.00">SeedLua</text>
<text text-anchor="middle" x="503" y="-352.8" font-family="Arial" font-size="14.00">...</text>
</g>
<!-- SeedAST&#45;&gt;SeedX -->
<g id="edge4" class="edge">
<title>SeedAST&#45;&gt;SeedX</title>
<path fill="none" stroke="black" d="M383.13,-370.57C402.14,-362.74 421.14,-360.44 440.15,-363.66"/>
<polygon fill="black" stroke="black" points="439.57,-367.12 450.09,-365.86 441.08,-360.28 439.57,-367.12"/>
</g>
<!-- SeedIR -->
<g id="node6" class="node">
<title>SeedIR</title>
<path fill="none" stroke="black" d="M369.5,-299C369.5,-299 318.5,-299 318.5,-299 312.5,-299 306.5,-293 306.5,-287 306.5,-287 306.5,-268 306.5,-268 306.5,-262 312.5,-256 318.5,-256 318.5,-256 369.5,-256 369.5,-256 375.5,-256 381.5,-262 381.5,-268 381.5,-268 381.5,-287 381.5,-287 381.5,-293 375.5,-299 369.5,-299"/>
<text text-anchor="middle" x="344" y="-273.8" font-family="Arial" font-size="14.00">SeedIR</text>
</g>
<!-- SeedAST&#45;&gt;SeedIR -->
<g id="edge6" class="edge">
<title>SeedAST&#45;&gt;SeedIR</title>
<path fill="none" stroke="black" d="M344,-351.33C344,-337.41 344,-322.19 344,-309.29"/>
<polygon fill="black" stroke="black" points="347.5,-309.07 344,-299.07 340.5,-309.07 347.5,-309.07"/>
</g>
<!-- SeedX&#45;&gt;SeedAST -->
<g id="edge5" class="edge">
<title>SeedX&#45;&gt;SeedAST</title>
<path fill="none" stroke="black" d="M450.09,-423.14C430.91,-428.35 411.73,-427.92 392.55,-421.86"/>
<polygon fill="black" stroke="black" points="393.72,-418.56 383.13,-418.43 391.33,-425.14 393.72,-418.56"/>
</g>
<!-- SourceCodeVisualizers -->
<g id="node5" class="node">
<title>SourceCodeVisualizers</title>
<polygon fill="none" stroke="black" points="288,-299 106,-299 106,-295 102,-295 102,-291 106,-291 106,-264 102,-264 102,-260 106,-260 106,-256 288,-256 288,-299"/>
<polyline fill="none" stroke="black" points="106,-295 110,-295 110,-291 106,-291 "/>
<polyline fill="none" stroke="black" points="106,-264 110,-264 110,-260 106,-260 "/>
<text text-anchor="middle" x="197" y="-273.8" font-family="Arial" font-size="14.00">Source Code Visualizers</text>
</g>
<!-- SourceCodeVisualizers&#45;&gt;SeedAST -->
<g id="edge9" class="edge">
<title>SourceCodeVisualizers&#45;&gt;SeedAST</title>
<path fill="none" stroke="black" stroke-dasharray="5,2" d="M223.38,-299.13C247.8,-318.24 284.21,-346.73 310.64,-367.4"/>
</g>
<!-- SourceCodeVisualizers&#45;&gt;SeedIR -->
<g id="edge10" class="edge">
<title>SourceCodeVisualizers&#45;&gt;SeedIR</title>
<path fill="none" stroke="black" stroke-dasharray="5,2" d="M288.01,-277.5C294.14,-277.5 300.26,-277.5 306.38,-277.5"/>
</g>
<!-- BytecodeCompiler -->
<g id="node7" class="node">
<title>BytecodeCompiler</title>
<path fill="none" stroke="black" d="M409,-220C409,-220 279,-220 279,-220 273,-220 267,-214 267,-208 267,-208 267,-189 267,-189 267,-183 273,-177 279,-177 279,-177 409,-177 409,-177 415,-177 421,-183 421,-189 421,-189 421,-208 421,-208 421,-214 415,-220 409,-220"/>
<text text-anchor="middle" x="344" y="-194.8" font-family="Arial" font-size="14.00">Byte Code Compiler</text>
</g>
<!-- SeedIR&#45;&gt;BytecodeCompiler -->
<g id="edge7" class="edge">
<title>SeedIR&#45;&gt;BytecodeCompiler</title>
<path fill="none" stroke="black" d="M344,-255.87C344,-248.01 344,-238.88 344,-230.29"/>
<polygon fill="black" stroke="black" points="347.5,-230.19 344,-220.19 340.5,-230.19 347.5,-230.19"/>
</g>
<!-- SeedInterpreter -->
<g id="node8" class="node">
<title>SeedInterpreter</title>
<path fill="none" stroke="black" d="M395,-138C395,-138 293,-138 293,-138 287,-138 281,-132 281,-126 281,-126 281,-107 281,-107 281,-101 287,-95 293,-95 293,-95 395,-95 395,-95 401,-95 407,-101 407,-107 407,-107 407,-126 407,-126 407,-132 401,-138 395,-138"/>
<text text-anchor="middle" x="344" y="-112.8" font-family="Arial" font-size="14.00">SeedInterpreter</text>
</g>
<!-- BytecodeCompiler&#45;&gt;SeedInterpreter -->
<g id="edge8" class="edge">
<title>BytecodeCompiler&#45;&gt;SeedInterpreter</title>
<path fill="none" stroke="black" d="M344,-176.9C344,-168.13 344,-157.71 344,-148.07"/>
<polygon fill="black" stroke="black" points="347.5,-148.03 344,-138.03 340.5,-148.03 347.5,-148.03"/>
</g>
<!-- Libraries -->
<g id="node10" class="node">
<title>Libraries</title>
<path fill="none" stroke="black" d="M241.5,-59C241.5,-59 136.5,-59 136.5,-59 130.5,-59 124.5,-53 124.5,-47 124.5,-47 124.5,-28 124.5,-28 124.5,-22 130.5,-16 136.5,-16 136.5,-16 241.5,-16 241.5,-16 247.5,-16 253.5,-22 253.5,-28 253.5,-28 253.5,-47 253.5,-47 253.5,-53 247.5,-59 241.5,-59"/>
<text text-anchor="middle" x="189" y="-33.8" font-family="Arial" font-size="14.00">Built&#45;in Libraries</text>
</g>
<!-- SeedInterpreter&#45;&gt;Libraries -->
<g id="edge12" class="edge">
<title>SeedInterpreter&#45;&gt;Libraries</title>
<path fill="none" stroke="black" d="M302.46,-94.87C283.1,-85.25 259.89,-73.72 239.52,-63.6"/>
<polygon fill="black" stroke="black" points="240.9,-60.37 230.38,-59.06 237.78,-66.64 240.9,-60.37"/>
</g>
<!-- ExtendedLibraries -->
<g id="node11" class="node">
<title>ExtendedLibraries</title>
<path fill="none" stroke="black" d="M404.5,-59C404.5,-59 283.5,-59 283.5,-59 277.5,-59 271.5,-53 271.5,-47 271.5,-47 271.5,-28 271.5,-28 271.5,-22 277.5,-16 283.5,-16 283.5,-16 404.5,-16 404.5,-16 410.5,-16 416.5,-22 416.5,-28 416.5,-28 416.5,-47 416.5,-47 416.5,-53 410.5,-59 404.5,-59"/>
<text text-anchor="middle" x="344" y="-33.8" font-family="Arial" font-size="14.00">Extended Libraries</text>
</g>
<!-- SeedInterpreter&#45;&gt;ExtendedLibraries -->
<g id="edge13" class="edge">
<title>SeedInterpreter&#45;&gt;ExtendedLibraries</title>
<path fill="none" stroke="black" d="M344,-94.87C344,-87.01 344,-77.88 344,-69.29"/>
<polygon fill="black" stroke="black" points="347.5,-69.19 344,-59.19 340.5,-69.19 347.5,-69.19"/>
</g>
<!-- Unsafe -->
<g id="node13" class="node">
<title>Unsafe</title>
<path fill="none" stroke="black" d="M615.5,-59C615.5,-59 446.5,-59 446.5,-59 440.5,-59 434.5,-53 434.5,-47 434.5,-47 434.5,-28 434.5,-28 434.5,-22 440.5,-16 446.5,-16 446.5,-16 615.5,-16 615.5,-16 621.5,-16 627.5,-22 627.5,-28 627.5,-28 627.5,-47 627.5,-47 627.5,-53 621.5,-59 615.5,-59"/>
<text text-anchor="middle" x="531" y="-33.8" font-family="Arial" font-size="14.00">Unsafe Extended Libraries</text>
</g>
<!-- SeedInterpreter&#45;&gt;Unsafe -->
<g id="edge14" class="edge">
<title>SeedInterpreter&#45;&gt;Unsafe</title>
<path fill="none" stroke="black" d="M394.11,-94.87C418,-85.03 446.74,-73.19 471.71,-62.91"/>
<polygon fill="black" stroke="black" points="473.16,-66.1 481.07,-59.06 470.49,-59.63 473.16,-66.1"/>
</g>
<!-- RuntimeVisualizers -->
<g id="node9" class="node">
<title>RuntimeVisualizers</title>
<polygon fill="none" stroke="black" points="216,-138 64,-138 64,-134 60,-134 60,-130 64,-130 64,-103 60,-103 60,-99 64,-99 64,-95 216,-95 216,-138"/>
<polyline fill="none" stroke="black" points="64,-134 68,-134 68,-130 64,-130 "/>
<polyline fill="none" stroke="black" points="64,-103 68,-103 68,-99 64,-99 "/>
<text text-anchor="middle" x="140" y="-112.8" font-family="Arial" font-size="14.00">Runtime Visualizers</text>
</g>
<!-- RuntimeVisualizers&#45;&gt;SeedInterpreter -->
<g id="edge11" class="edge">
<title>RuntimeVisualizers&#45;&gt;SeedInterpreter</title>
<path fill="none" stroke="black" stroke-dasharray="5,2" d="M216.1,-116.5C237.58,-116.5 259.07,-116.5 280.55,-116.5"/>
</g>
<!-- Debugger -->
<g id="node12" class="node">
<title>Debugger</title>
<polygon fill="none" stroke="black" points="106,-59 16,-59 16,-55 12,-55 12,-51 16,-51 16,-24 12,-24 12,-20 16,-20 16,-16 106,-16 106,-59"/>
<polyline fill="none" stroke="black" points="16,-55 20,-55 20,-51 16,-51 "/>
<polyline fill="none" stroke="black" points="16,-24 20,-24 20,-20 16,-20 "/>
<text text-anchor="middle" x="61" y="-33.8" font-family="Arial" font-size="14.00">Debugger</text>
</g>
</g>
</svg>
