<?xml version="1.0" encoding="UTF-8" standalone="no"?>
<!DOCTYPE svg PUBLIC "-//W3C//DTD SVG 1.1//EN"
 "http://www.w3.org/Graphics/SVG/1.1/DTD/svg11.dtd">
<!-- Generated by graphviz version 2.50.0 (20211204.2007)
 -->
<!-- Title: SeedLang Pages: 1 -->
<svg width="621pt" height="556pt"
 viewBox="0.00 0.00 621.00 556.00" xmlns="http://www.w3.org/2000/svg" xmlns:xlink="http://www.w3.org/1999/xlink">
<g id="graph0" class="graph" transform="scale(1 1) rotate(0) translate(4 552)">
<title>SeedLang</title>
<polygon fill="white" stroke="transparent" points="-4,4 -4,-552 617,-552 617,4 -4,4"/>
<g id="clust5" class="cluster">
<title>cluster_Sandbox</title>
<polygon fill="none" stroke="black" stroke-dasharray="1,5" points="8,-8 8,-169 415,-169 415,-8 8,-8"/>
<text text-anchor="middle" x="211.5" y="-153.8" font-family="Arial" font-size="14.00">Sandbox</text>
</g>
<!-- NaturalProgrammingExtensions -->
<g id="node1" class="node">
<title>NaturalProgrammingExtensions</title>
<path fill="none" stroke="black" d="M438,-548C438,-548 234,-548 234,-548 228,-548 222,-542 222,-536 222,-536 222,-517 222,-517 222,-511 228,-505 234,-505 234,-505 438,-505 438,-505 444,-505 450,-511 450,-517 450,-517 450,-536 450,-536 450,-542 444,-548 438,-548"/>
<text text-anchor="middle" x="336" y="-522.8" font-family="Arial" font-size="14.00">Natural Programming Extensions</text>
</g>
<!-- SeedAST -->
<g id="node3" class="node">
<title>SeedAST</title>
<path fill="none" stroke="black" d="M325.27,-439.63C325.27,-439.63 260.73,-407.37 260.73,-407.37 255.37,-404.68 255.37,-399.32 260.73,-396.63 260.73,-396.63 325.27,-364.37 325.27,-364.37 330.63,-361.68 341.37,-361.68 346.73,-364.37 346.73,-364.37 411.27,-396.63 411.27,-396.63 416.63,-399.32 416.63,-404.68 411.27,-407.37 411.27,-407.37 346.73,-439.63 346.73,-439.63 341.37,-442.32 330.63,-442.32 325.27,-439.63"/>
<text text-anchor="middle" x="336" y="-398.3" font-family="Arial" font-size="14.00">SeedAST</text>
</g>
<!-- NaturalProgrammingExtensions&#45;&gt;SeedAST -->
<g id="edge1" class="edge">
<title>NaturalProgrammingExtensions&#45;&gt;SeedAST</title>
<path fill="none" stroke="black" d="M336,-505C336,-491.39 336,-472.87 336,-455.35"/>
<polygon fill="black" stroke="black" points="339.5,-455.19 336,-445.19 332.5,-455.19 339.5,-455.19"/>
</g>
<!-- SeedBlock -->
<g id="node2" class="node">
<title>SeedBlock</title>
<polygon fill="none" stroke="black" points="231.5,-446.5 228.5,-450.5 207.5,-450.5 204.5,-446.5 58.5,-446.5 58.5,-357.5 231.5,-357.5 231.5,-446.5"/>
<text text-anchor="middle" x="145" y="-421.3" font-family="Arial" font-size="14.00">SeedBlock</text>
<text text-anchor="middle" x="145" y="-390.3" font-family="Arial" font-size="14.00">Block Renderer/Editor</text>
<text text-anchor="middle" x="145" y="-375.3" font-family="Arial" font-size="14.00">Block Exchange Format</text>
</g>
<!-- SeedBlock&#45;&gt;SeedAST -->
<g id="edge2" class="edge">
<title>SeedBlock&#45;&gt;SeedAST</title>
<path fill="none" stroke="black" d="M231.55,-368.92C249.33,-367.75 267.12,-370.06 284.91,-375.84"/>
<polygon fill="black" stroke="black" points="284.2,-379.31 294.79,-379.41 286.57,-372.72 284.2,-379.31"/>
</g>
<!-- SeedAST&#45;&gt;SeedBlock -->
<g id="edge3" class="edge">
<title>SeedAST&#45;&gt;SeedBlock</title>
<path fill="none" stroke="black" d="M294.79,-424.59C277.17,-431.59 259.55,-435.18 241.92,-435.37"/>
<polygon fill="black" stroke="black" points="241.64,-431.86 231.55,-435.08 241.45,-438.86 241.64,-431.86"/>
</g>
<!-- SeedX -->
<g id="node4" class="node">
<title>SeedX</title>
<polygon fill="none" stroke="black" points="542,-469 539,-473 518,-473 515,-469 440,-469 440,-335 542,-335 542,-469"/>
<text text-anchor="middle" x="491" y="-443.8" font-family="Arial" font-size="14.00">SeedX</text>
<text text-anchor="middle" x="491" y="-412.8" font-family="Arial" font-size="14.00">SeedCalc</text>
<text text-anchor="middle" x="491" y="-397.8" font-family="Arial" font-size="14.00">SeedPython</text>
<text text-anchor="middle" x="491" y="-382.8" font-family="Arial" font-size="14.00">SeedJS</text>
<text text-anchor="middle" x="491" y="-367.8" font-family="Arial" font-size="14.00">SeedLua</text>
<text text-anchor="middle" x="491" y="-352.8" font-family="Arial" font-size="14.00">...</text>
</g>
<!-- SeedAST&#45;&gt;SeedX -->
<g id="edge4" class="edge">
<title>SeedAST&#45;&gt;SeedX</title>
<path fill="none" stroke="black" d="M374.14,-378.07C392.8,-370.18 411.46,-367.9 430.12,-371.23"/>
<polygon fill="black" stroke="black" points="429.34,-374.65 439.88,-373.49 430.92,-367.83 429.34,-374.65"/>
</g>
<!-- SeedIR -->
<g id="node6" class="node">
<title>SeedIR</title>
<path fill="none" stroke="black" d="M361,-299C361,-299 311,-299 311,-299 305,-299 299,-293 299,-287 299,-287 299,-268 299,-268 299,-262 305,-256 311,-256 311,-256 361,-256 361,-256 367,-256 373,-262 373,-268 373,-268 373,-287 373,-287 373,-293 367,-299 361,-299"/>
<text text-anchor="middle" x="336" y="-273.8" font-family="Arial" font-size="14.00">SeedIR</text>
</g>
<!-- SeedAST&#45;&gt;SeedIR -->
<g id="edge6" class="edge">
<title>SeedAST&#45;&gt;SeedIR</title>
<path fill="none" stroke="black" d="M336,-358.84C336,-342.58 336,-324.32 336,-309.33"/>
<polygon fill="black" stroke="black" points="339.5,-309.06 336,-299.06 332.5,-309.06 339.5,-309.06"/>
</g>
<!-- SeedX&#45;&gt;SeedAST -->
<g id="edge5" class="edge">
<title>SeedX&#45;&gt;SeedAST</title>
<path fill="none" stroke="black" d="M439.88,-430.51C421.13,-435.82 402.39,-435.47 383.64,-429.46"/>
<polygon fill="black" stroke="black" points="384.74,-426.14 374.14,-425.93 382.3,-432.7 384.74,-426.14"/>
</g>
<!-- SourceCodeVisualizers -->
<g id="node5" class="node">
<title>SourceCodeVisualizers</title>
<polygon fill="none" stroke="black" points="281,-299 105,-299 105,-295 101,-295 101,-291 105,-291 105,-264 101,-264 101,-260 105,-260 105,-256 281,-256 281,-299"/>
<polyline fill="none" stroke="black" points="105,-295 109,-295 109,-291 105,-291 "/>
<polyline fill="none" stroke="black" points="105,-264 109,-264 109,-260 105,-260 "/>
<text text-anchor="middle" x="193" y="-273.8" font-family="Arial" font-size="14.00">Source Code Visualizers</text>
</g>
<!-- SourceCodeVisualizers&#45;&gt;SeedAST -->
<g id="edge9" class="edge">
<title>SourceCodeVisualizers&#45;&gt;SeedAST</title>
<path fill="none" stroke="black" stroke-dasharray="5,2" d="M217.34,-299.35C241.52,-320.06 278.69,-351.9 304.97,-374.42"/>
</g>
<!-- SourceCodeVisualizers&#45;&gt;SeedIR -->
<g id="edge10" class="edge">
<title>SourceCodeVisualizers&#45;&gt;SeedIR</title>
<path fill="none" stroke="black" stroke-dasharray="5,2" d="M281.26,-277.5C287.1,-277.5 292.95,-277.5 298.79,-277.5"/>
</g>
<!-- BytecodeCompiler -->
<g id="node7" class="node">
<title>BytecodeCompiler</title>
<path fill="none" stroke="black" d="M399,-220C399,-220 273,-220 273,-220 267,-220 261,-214 261,-208 261,-208 261,-189 261,-189 261,-183 267,-177 273,-177 273,-177 399,-177 399,-177 405,-177 411,-183 411,-189 411,-189 411,-208 411,-208 411,-214 405,-220 399,-220"/>
<text text-anchor="middle" x="336" y="-194.8" font-family="Arial" font-size="14.00">Byte Code Compiler</text>
</g>
<!-- SeedIR&#45;&gt;BytecodeCompiler -->
<g id="edge7" class="edge">
<title>SeedIR&#45;&gt;BytecodeCompiler</title>
<path fill="none" stroke="black" d="M336,-255.87C336,-248.01 336,-238.88 336,-230.29"/>
<polygon fill="black" stroke="black" points="339.5,-230.19 336,-220.19 332.5,-230.19 339.5,-230.19"/>
</g>
<!-- SeedInterpreter -->
<g id="node8" class="node">
<title>SeedInterpreter</title>
<path fill="none" stroke="black" d="M385,-138C385,-138 287,-138 287,-138 281,-138 275,-132 275,-126 275,-126 275,-107 275,-107 275,-101 281,-95 287,-95 287,-95 385,-95 385,-95 391,-95 397,-101 397,-107 397,-107 397,-126 397,-126 397,-132 391,-138 385,-138"/>
<text text-anchor="middle" x="336" y="-112.8" font-family="Arial" font-size="14.00">SeedInterpreter</text>
</g>
<!-- BytecodeCompiler&#45;&gt;SeedInterpreter -->
<g id="edge8" class="edge">
<title>BytecodeCompiler&#45;&gt;SeedInterpreter</title>
<path fill="none" stroke="black" d="M336,-176.9C336,-168.13 336,-157.71 336,-148.07"/>
<polygon fill="black" stroke="black" points="339.5,-148.03 336,-138.03 332.5,-148.03 339.5,-148.03"/>
</g>
<!-- Libraries -->
<g id="node10" class="node">
<title>Libraries</title>
<path fill="none" stroke="black" d="M235.5,-59C235.5,-59 134.5,-59 134.5,-59 128.5,-59 122.5,-53 122.5,-47 122.5,-47 122.5,-28 122.5,-28 122.5,-22 128.5,-16 134.5,-16 134.5,-16 235.5,-16 235.5,-16 241.5,-16 247.5,-22 247.5,-28 247.5,-28 247.5,-47 247.5,-47 247.5,-53 241.5,-59 235.5,-59"/>
<text text-anchor="middle" x="185" y="-33.8" font-family="Arial" font-size="14.00">Built&#45;in Libraries</text>
</g>
<!-- SeedInterpreter&#45;&gt;Libraries -->
<g id="edge12" class="edge">
<title>SeedInterpreter&#45;&gt;Libraries</title>
<path fill="none" stroke="black" d="M295.53,-94.87C276.76,-85.29 254.26,-73.82 234.48,-63.73"/>
<polygon fill="black" stroke="black" points="235.81,-60.48 225.31,-59.06 232.63,-66.72 235.81,-60.48"/>
</g>
<!-- ExtendedLibraries -->
<g id="node11" class="node">
<title>ExtendedLibraries</title>
<path fill="none" stroke="black" d="M394.5,-59C394.5,-59 277.5,-59 277.5,-59 271.5,-59 265.5,-53 265.5,-47 265.5,-47 265.5,-28 265.5,-28 265.5,-22 271.5,-16 277.5,-16 277.5,-16 394.5,-16 394.5,-16 400.5,-16 406.5,-22 406.5,-28 406.5,-28 406.5,-47 406.5,-47 406.5,-53 400.5,-59 394.5,-59"/>
<text text-anchor="middle" x="336" y="-33.8" font-family="Arial" font-size="14.00">Extended Libraries</text>
</g>
<!-- SeedInterpreter&#45;&gt;ExtendedLibraries -->
<g id="edge13" class="edge">
<title>SeedInterpreter&#45;&gt;ExtendedLibraries</title>
<path fill="none" stroke="black" d="M336,-94.87C336,-87.01 336,-77.88 336,-69.29"/>
<polygon fill="black" stroke="black" points="339.5,-69.19 336,-59.19 332.5,-69.19 339.5,-69.19"/>
</g>
<!-- Unsafe -->
<g id="node13" class="node">
<title>Unsafe</title>
<path fill="none" stroke="black" d="M601,-59C601,-59 437,-59 437,-59 431,-59 425,-53 425,-47 425,-47 425,-28 425,-28 425,-22 431,-16 437,-16 437,-16 601,-16 601,-16 607,-16 613,-22 613,-28 613,-28 613,-47 613,-47 613,-53 607,-59 601,-59"/>
<text text-anchor="middle" x="519" y="-33.8" font-family="Arial" font-size="14.00">Unsafe Extended Libraries</text>
</g>
<!-- SeedInterpreter&#45;&gt;Unsafe -->
<g id="edge14" class="edge">
<title>SeedInterpreter&#45;&gt;Unsafe</title>
<path fill="none" stroke="black" d="M385.04,-94.87C408.31,-85.07 436.3,-73.3 460.65,-63.05"/>
<polygon fill="black" stroke="black" points="462.28,-66.16 470.14,-59.06 459.57,-59.71 462.28,-66.16"/>
</g>
<!-- RuntimeVisualizers -->
<g id="node9" class="node">
<title>RuntimeVisualizers</title>
<polygon fill="none" stroke="black" points="211.5,-138 62.5,-138 62.5,-134 58.5,-134 58.5,-130 62.5,-130 62.5,-103 58.5,-103 58.5,-99 62.5,-99 62.5,-95 211.5,-95 211.5,-138"/>
<polyline fill="none" stroke="black" points="62.5,-134 66.5,-134 66.5,-130 62.5,-130 "/>
<polyline fill="none" stroke="black" points="62.5,-103 66.5,-103 66.5,-99 62.5,-99 "/>
<text text-anchor="middle" x="137" y="-112.8" font-family="Arial" font-size="14.00">Runtime Visualizers</text>
</g>
<!-- RuntimeVisualizers&#45;&gt;SeedInterpreter -->
<g id="edge11" class="edge">
<title>RuntimeVisualizers&#45;&gt;SeedInterpreter</title>
<path fill="none" stroke="black" stroke-dasharray="5,2" d="M211.62,-116.5C232.68,-116.5 253.73,-116.5 274.78,-116.5"/>
</g>
<!-- Debugger -->
<g id="node12" class="node">
<title>Debugger</title>
<polygon fill="none" stroke="black" points="104,-59 16,-59 16,-55 12,-55 12,-51 16,-51 16,-24 12,-24 12,-20 16,-20 16,-16 104,-16 104,-59"/>
<polyline fill="none" stroke="black" points="16,-55 20,-55 20,-51 16,-51 "/>
<polyline fill="none" stroke="black" points="16,-24 20,-24 20,-20 16,-20 "/>
<text text-anchor="middle" x="60" y="-33.8" font-family="Arial" font-size="14.00">Debugger</text>
</g>
</g>
</svg>
