<?xml version="1.0" encoding="UTF-8" standalone="no"?>
<!DOCTYPE svg PUBLIC "-//W3C//DTD SVG 1.1//EN"
 "http://www.w3.org/Graphics/SVG/1.1/DTD/svg11.dtd">
<!-- Generated by graphviz version 2.47.3 (20210619.1520)
 -->
<!-- Title: SeedBlockInterModuleView Pages: 1 -->
<svg width="711pt" height="527pt"
 viewBox="0.00 0.00 711.00 527.00" xmlns="http://www.w3.org/2000/svg" xmlns:xlink="http://www.w3.org/1999/xlink">
<g id="graph0" class="graph" transform="scale(1 1) rotate(0) translate(4 523)">
<title>SeedBlockInterModuleView</title>
<polygon fill="white" stroke="transparent" points="-4,4 -4,-523 707,-523 707,4 -4,4"/>
<!-- Timer -->
<g id="node1" class="node">
<title>Timer</title>
<polygon fill="none" stroke="black" points="1.5,-389.5 1.5,-475.5 276.5,-475.5 276.5,-389.5 1.5,-389.5"/>
<text text-anchor="middle" x="33.5" y="-428.8" font-family="Arial" font-size="14.00">Timer</text>
<polyline fill="none" stroke="black" points="65.5,-389.5 65.5,-475.5 "/>
<text text-anchor="middle" x="171" y="-450.3" font-family="Arial" font-size="14.00">Property: Count</text>
<polyline fill="none" stroke="black" points="65.5,-432.5 276.5,-432.5 "/>
<text text-anchor="middle" x="171" y="-407.3" font-family="Arial" font-size="14.00">Function: RegisterEvent_Tick</text>
</g>
<!-- Tank -->
<g id="node3" class="node">
<title>Tank</title>
<polygon fill="none" stroke="black" points="0,-0.5 0,-258.5 268,-258.5 268,-0.5 0,-0.5"/>
<text text-anchor="middle" x="29" y="-125.8" font-family="Arial" font-size="14.00">Tank</text>
<polyline fill="none" stroke="black" points="58,-0.5 58,-258.5 "/>
<text text-anchor="middle" x="163" y="-233.3" font-family="Arial" font-size="14.00">Property: Position</text>
<polyline fill="none" stroke="black" points="58,-215.5 268,-215.5 "/>
<text text-anchor="middle" x="163" y="-190.3" font-family="Arial" font-size="14.00">Property: Speed</text>
<polyline fill="none" stroke="black" points="58,-172.5 268,-172.5 "/>
<text text-anchor="middle" x="163" y="-147.3" font-family="Arial" font-size="14.00">Property: Health</text>
<polyline fill="none" stroke="black" points="58,-129.5 268,-129.5 "/>
<text text-anchor="middle" x="163" y="-104.3" font-family="Arial" font-size="14.00">Function: RegisterEvent_Fire</text>
<polyline fill="none" stroke="black" points="58,-86.5 268,-86.5 "/>
<text text-anchor="middle" x="163" y="-61.3" font-family="Arial" font-size="14.00">Function: OnEvent_Hit</text>
<polyline fill="none" stroke="black" points="58,-43.5 268,-43.5 "/>
<text text-anchor="middle" x="163" y="-18.3" font-family="Arial" font-size="14.00">Function: OnEvent_Tick</text>
</g>
<!-- Timer&#45;&gt;Tank -->
<g id="edge3" class="edge">
<title>Timer&#45;&gt;Tank</title>
<path fill="none" stroke="black" stroke-dasharray="1,5" d="M81.2,-389.31C57.49,-368.42 32.66,-341.03 20,-310 14.36,-296.18 13.34,-282.25 15.64,-268.58"/>
<polygon fill="black" stroke="black" points="19.08,-269.21 17.87,-258.68 12.25,-267.67 19.08,-269.21"/>
<text text-anchor="middle" x="77" y="-298.8" font-family="Arial" font-size="14.00">HandleEvent_Tick</text>
</g>
<!-- EnemyTank -->
<g id="node4" class="node">
<title>EnemyTank</title>
<polygon fill="none" stroke="black" points="391,-0.5 391,-258.5 703,-258.5 703,-0.5 391,-0.5"/>
<text text-anchor="middle" x="442" y="-125.8" font-family="Arial" font-size="14.00">EnemyTank</text>
<polyline fill="none" stroke="black" points="493,-0.5 493,-258.5 "/>
<text text-anchor="middle" x="598" y="-233.3" font-family="Arial" font-size="14.00">Property: Position</text>
<polyline fill="none" stroke="black" points="493,-215.5 703,-215.5 "/>
<text text-anchor="middle" x="598" y="-190.3" font-family="Arial" font-size="14.00">Property: Speed</text>
<polyline fill="none" stroke="black" points="493,-172.5 703,-172.5 "/>
<text text-anchor="middle" x="598" y="-147.3" font-family="Arial" font-size="14.00">Property: Health</text>
<polyline fill="none" stroke="black" points="493,-129.5 703,-129.5 "/>
<text text-anchor="middle" x="598" y="-104.3" font-family="Arial" font-size="14.00">Function: RegisterEvent_Fire</text>
<polyline fill="none" stroke="black" points="493,-86.5 703,-86.5 "/>
<text text-anchor="middle" x="598" y="-61.3" font-family="Arial" font-size="14.00">Function: OnEvent_Hit</text>
<polyline fill="none" stroke="black" points="493,-43.5 703,-43.5 "/>
<text text-anchor="middle" x="598" y="-18.3" font-family="Arial" font-size="14.00">Function: OnEvent_Tick</text>
</g>
<!-- Timer&#45;&gt;EnemyTank -->
<g id="edge4" class="edge">
<title>Timer&#45;&gt;EnemyTank</title>
<path fill="none" stroke="black" stroke-dasharray="1,5" d="M150.81,-389.35C161.17,-359.38 179.03,-320.13 207,-295 241.21,-264.27 262.03,-277.79 304,-259 329.52,-247.58 356.09,-234.65 381.89,-221.51"/>
<polygon fill="black" stroke="black" points="383.67,-224.53 390.98,-216.85 380.48,-218.29 383.67,-224.53"/>
<text text-anchor="middle" x="264" y="-298.8" font-family="Arial" font-size="14.00">HandleEvent_Tick</text>
</g>
<!-- Wall -->
<g id="node2" class="node">
<title>Wall</title>
<polygon fill="none" stroke="black" points="370,-346.5 370,-518.5 628,-518.5 628,-346.5 370,-346.5"/>
<text text-anchor="middle" x="397.5" y="-428.8" font-family="Arial" font-size="14.00">Wall</text>
<polyline fill="none" stroke="black" points="425,-346.5 425,-518.5 "/>
<text text-anchor="middle" x="526.5" y="-493.3" font-family="Arial" font-size="14.00">Property: Position</text>
<polyline fill="none" stroke="black" points="425,-475.5 628,-475.5 "/>
<text text-anchor="middle" x="526.5" y="-450.3" font-family="Arial" font-size="14.00">Property: Health</text>
<polyline fill="none" stroke="black" points="425,-432.5 628,-432.5 "/>
<text text-anchor="middle" x="526.5" y="-407.3" font-family="Arial" font-size="14.00">Function: RegisterEvent_Hit</text>
<polyline fill="none" stroke="black" points="425,-389.5 628,-389.5 "/>
<text text-anchor="middle" x="526.5" y="-364.3" font-family="Arial" font-size="14.00">Function: OnEvent_Tick</text>
</g>
<!-- Wall&#45;&gt;Tank -->
<g id="edge1" class="edge">
<title>Wall&#45;&gt;Tank</title>
<path fill="none" stroke="black" stroke-dasharray="1,5" d="M399.96,-346.2C379.88,-329.13 358.83,-311.41 339,-295 318.73,-278.22 297.18,-260.66 275.97,-243.51"/>
<polygon fill="black" stroke="black" points="278.15,-240.77 268.18,-237.21 273.76,-246.22 278.15,-240.77"/>
<text text-anchor="middle" x="410" y="-298.8" font-family="Arial" font-size="14.00">HandleEvent_Hit</text>
</g>
<!-- Wall&#45;&gt;EnemyTank -->
<g id="edge2" class="edge">
<title>Wall&#45;&gt;EnemyTank</title>
<path fill="none" stroke="black" stroke-dasharray="1,5" d="M515.67,-346.29C517.9,-334.13 520.07,-321.76 522,-310 524.19,-296.63 526.36,-282.69 528.44,-268.73"/>
<polygon fill="black" stroke="black" points="531.94,-268.98 529.94,-258.58 525.02,-267.96 531.94,-268.98"/>
<text text-anchor="middle" x="577" y="-298.8" font-family="Arial" font-size="14.00">HandleEvent_Hit</text>
</g>
</g>
</svg>
