<?xml version="1.0" encoding="UTF-8" standalone="no"?>
<!DOCTYPE svg PUBLIC "-//W3C//DTD SVG 1.1//EN"
 "http://www.w3.org/Graphics/SVG/1.1/DTD/svg11.dtd">
<!-- Generated by graphviz version 2.47.3 (20210619.1520)
 -->
<!-- Title: SeedBlockInterModuleView Pages: 1 -->
<svg width="664pt" height="442pt"
 viewBox="0.00 0.00 663.50 442.00" xmlns="http://www.w3.org/2000/svg" xmlns:xlink="http://www.w3.org/1999/xlink">
<g id="graph0" class="graph" transform="scale(1 1) rotate(0) translate(4 438)">
<title>SeedBlockInterModuleView</title>
<polygon fill="white" stroke="transparent" points="-4,4 -4,-438 659.5,-438 659.5,4 -4,4"/>
<!-- Main -->
<g id="node1" class="node">
<title>Main</title>
<polygon fill="none" stroke="black" points="399,-434 282,-434 282,-430 278,-430 278,-426 282,-426 282,-384 278,-384 278,-380 282,-380 282,-376 399,-376 399,-434"/>
<polyline fill="none" stroke="black" points="282,-430 286,-430 286,-426 282,-426 "/>
<polyline fill="none" stroke="black" points="282,-384 286,-384 286,-380 282,-380 "/>
<text text-anchor="middle" x="340.5" y="-408.8" font-family="Arial" font-size="14.00">Main</text>
<text text-anchor="middle" x="340.5" y="-393.8" font-family="Arial" font-size="14.00">(User Module)</text>
</g>
<!-- BattleGameMainLoop -->
<g id="node2" class="node">
<title>BattleGameMainLoop</title>
<polygon fill="none" stroke="black" points="169.5,-340 5.5,-340 5.5,-336 1.5,-336 1.5,-332 5.5,-332 5.5,-290 1.5,-290 1.5,-286 5.5,-286 5.5,-282 169.5,-282 169.5,-340"/>
<polyline fill="none" stroke="black" points="5.5,-336 9.5,-336 9.5,-332 5.5,-332 "/>
<polyline fill="none" stroke="black" points="5.5,-290 9.5,-290 9.5,-286 5.5,-286 "/>
<text text-anchor="middle" x="87.5" y="-314.8" font-family="Arial" font-size="14.00">BattleGameMainLoop</text>
<text text-anchor="middle" x="87.5" y="-299.8" font-family="Arial" font-size="14.00">(Extended Library)</text>
</g>
<!-- Main&#45;&gt;BattleGameMainLoop -->
<g id="edge1" class="edge">
<title>Main&#45;&gt;BattleGameMainLoop</title>
<path fill="none" stroke="black" d="M281.82,-382.66C249.79,-371.02 209.53,-356.38 173.98,-343.45"/>
<polygon fill="black" stroke="black" points="175.16,-340.15 164.57,-340.02 172.77,-346.73 175.16,-340.15"/>
</g>
<!-- BattleField -->
<g id="node3" class="node">
<title>BattleField</title>
<polygon fill="none" stroke="black" points="331.5,-340 187.5,-340 187.5,-336 183.5,-336 183.5,-332 187.5,-332 187.5,-290 183.5,-290 183.5,-286 187.5,-286 187.5,-282 331.5,-282 331.5,-340"/>
<polyline fill="none" stroke="black" points="187.5,-336 191.5,-336 191.5,-332 187.5,-332 "/>
<polyline fill="none" stroke="black" points="187.5,-290 191.5,-290 191.5,-286 187.5,-286 "/>
<text text-anchor="middle" x="259.5" y="-314.8" font-family="Arial" font-size="14.00">BattleField</text>
<text text-anchor="middle" x="259.5" y="-299.8" font-family="Arial" font-size="14.00">(Extended Library)</text>
</g>
<!-- Main&#45;&gt;BattleField -->
<g id="edge2" class="edge">
<title>Main&#45;&gt;BattleField</title>
<path fill="none" stroke="black" d="M315.76,-375.9C307.98,-367.06 299.28,-357.18 291.1,-347.89"/>
<polygon fill="black" stroke="black" points="293.61,-345.44 284.37,-340.25 288.35,-350.07 293.61,-345.44"/>
</g>
<!-- Tank -->
<g id="node4" class="node">
<title>Tank</title>
<polygon fill="none" stroke="black" points="493.5,-340 349.5,-340 349.5,-336 345.5,-336 345.5,-332 349.5,-332 349.5,-290 345.5,-290 345.5,-286 349.5,-286 349.5,-282 493.5,-282 493.5,-340"/>
<polyline fill="none" stroke="black" points="349.5,-336 353.5,-336 353.5,-332 349.5,-332 "/>
<polyline fill="none" stroke="black" points="349.5,-290 353.5,-290 353.5,-286 349.5,-286 "/>
<text text-anchor="middle" x="421.5" y="-314.8" font-family="Arial" font-size="14.00">Tank</text>
<text text-anchor="middle" x="421.5" y="-299.8" font-family="Arial" font-size="14.00">(Extended Library)</text>
</g>
<!-- Main&#45;&gt;Tank -->
<g id="edge3" class="edge">
<title>Main&#45;&gt;Tank</title>
<path fill="none" stroke="black" d="M365.24,-375.9C373.02,-367.06 381.72,-357.18 389.9,-347.89"/>
<polygon fill="black" stroke="black" points="392.65,-350.07 396.63,-340.25 387.39,-345.44 392.65,-350.07"/>
</g>
<!-- EnemyTank -->
<g id="node5" class="node">
<title>EnemyTank</title>
<polygon fill="none" stroke="black" points="655.5,-340 511.5,-340 511.5,-336 507.5,-336 507.5,-332 511.5,-332 511.5,-290 507.5,-290 507.5,-286 511.5,-286 511.5,-282 655.5,-282 655.5,-340"/>
<polyline fill="none" stroke="black" points="511.5,-336 515.5,-336 515.5,-332 511.5,-332 "/>
<polyline fill="none" stroke="black" points="511.5,-290 515.5,-290 515.5,-286 511.5,-286 "/>
<text text-anchor="middle" x="583.5" y="-314.8" font-family="Arial" font-size="14.00">EnemyTank</text>
<text text-anchor="middle" x="583.5" y="-299.8" font-family="Arial" font-size="14.00">(Extended Library)</text>
</g>
<!-- Main&#45;&gt;EnemyTank -->
<g id="edge4" class="edge">
<title>Main&#45;&gt;EnemyTank</title>
<path fill="none" stroke="black" d="M399.01,-381.85C429.82,-370.18 468.1,-355.69 501.79,-342.94"/>
<polygon fill="black" stroke="black" points="503.04,-346.2 511.16,-339.39 500.57,-339.66 503.04,-346.2"/>
</g>
<!-- InputManager -->
<g id="node8" class="node">
<title>InputManager</title>
<polygon fill="none" stroke="black" stroke-dasharray="5,2" points="127,-246 0,-246 0,-242 -4,-242 -4,-238 0,-238 0,-196 -4,-196 -4,-192 0,-192 0,-188 127,-188 127,-246"/>
<polyline fill="none" stroke="black" stroke-dasharray="5,2" points="0,-242 4,-242 4,-238 0,-238 "/>
<polyline fill="none" stroke="black" stroke-dasharray="5,2" points="0,-196 4,-196 4,-192 0,-192 "/>
<text text-anchor="middle" x="63.5" y="-220.8" font-family="Arial" font-size="14.00">InputManager</text>
<text text-anchor="middle" x="63.5" y="-205.8" font-family="Arial" font-size="14.00">(Built&#45;in Library)</text>
</g>
<!-- BattleGameMainLoop&#45;&gt;InputManager -->
<g id="edge5" class="edge">
<title>BattleGameMainLoop&#45;&gt;InputManager</title>
<path fill="none" stroke="black" stroke-dasharray="5,2" d="M80.17,-281.9C78.05,-273.77 75.7,-264.76 73.45,-256.13"/>
<polygon fill="black" stroke="black" points="76.78,-255.04 70.87,-246.25 70.01,-256.81 76.78,-255.04"/>
</g>
<!-- EventSystem -->
<g id="node9" class="node">
<title>EventSystem</title>
<polygon fill="none" stroke="black" stroke-dasharray="5,2" points="272,-246 145,-246 145,-242 141,-242 141,-238 145,-238 145,-196 141,-196 141,-192 145,-192 145,-188 272,-188 272,-246"/>
<polyline fill="none" stroke="black" stroke-dasharray="5,2" points="145,-242 149,-242 149,-238 145,-238 "/>
<polyline fill="none" stroke="black" stroke-dasharray="5,2" points="145,-196 149,-196 149,-192 145,-192 "/>
<text text-anchor="middle" x="208.5" y="-220.8" font-family="Arial" font-size="14.00">EventSystem</text>
<text text-anchor="middle" x="208.5" y="-205.8" font-family="Arial" font-size="14.00">(Built&#45;in Library)</text>
</g>
<!-- BattleGameMainLoop&#45;&gt;EventSystem -->
<g id="edge6" class="edge">
<title>BattleGameMainLoop&#45;&gt;EventSystem</title>
<path fill="none" stroke="black" stroke-dasharray="5,2" d="M124.46,-281.9C136.66,-272.62 150.38,-262.19 163.13,-252.5"/>
<polygon fill="black" stroke="black" points="165.51,-255.09 171.35,-246.25 161.27,-249.51 165.51,-255.09"/>
</g>
<!-- ThreeDTerrain -->
<g id="node11" class="node">
<title>ThreeDTerrain</title>
<polygon fill="none" stroke="black" stroke-dasharray="5,2" points="486,-246 359,-246 359,-242 355,-242 355,-238 359,-238 359,-196 355,-196 355,-192 359,-192 359,-188 486,-188 486,-246"/>
<polyline fill="none" stroke="black" stroke-dasharray="5,2" points="359,-242 363,-242 363,-238 359,-238 "/>
<polyline fill="none" stroke="black" stroke-dasharray="5,2" points="359,-196 363,-196 363,-192 359,-192 "/>
<text text-anchor="middle" x="422.5" y="-220.8" font-family="Arial" font-size="14.00">3DTerrain</text>
<text text-anchor="middle" x="422.5" y="-205.8" font-family="Arial" font-size="14.00">(Built&#45;in Library)</text>
</g>
<!-- BattleField&#45;&gt;ThreeDTerrain -->
<g id="edge7" class="edge">
<title>BattleField&#45;&gt;ThreeDTerrain</title>
<path fill="none" stroke="black" stroke-dasharray="5,2" d="M309.29,-281.9C326.43,-272.22 345.79,-261.3 363.59,-251.25"/>
<polygon fill="black" stroke="black" points="365.74,-254.05 372.73,-246.09 362.3,-247.96 365.74,-254.05"/>
</g>
<!-- ThreeD -->
<g id="node10" class="node">
<title>ThreeD</title>
<polygon fill="none" stroke="black" stroke-dasharray="5,2" points="532,-152 405,-152 405,-148 401,-148 401,-144 405,-144 405,-102 401,-102 401,-98 405,-98 405,-94 532,-94 532,-152"/>
<polyline fill="none" stroke="black" stroke-dasharray="5,2" points="405,-148 409,-148 409,-144 405,-144 "/>
<polyline fill="none" stroke="black" stroke-dasharray="5,2" points="405,-102 409,-102 409,-98 405,-98 "/>
<text text-anchor="middle" x="468.5" y="-126.8" font-family="Arial" font-size="14.00">3D</text>
<text text-anchor="middle" x="468.5" y="-111.8" font-family="Arial" font-size="14.00">(Built&#45;in Library)</text>
</g>
<!-- Tank&#45;&gt;ThreeD -->
<g id="edge8" class="edge">
<title>Tank&#45;&gt;ThreeD</title>
<path fill="none" stroke="black" stroke-dasharray="5,2" d="M477.94,-281.89C512.94,-262.47 550.87,-236.84 548.5,-218"/>
<path fill="none" stroke="black" stroke-dasharray="5,2" d="M548.5,-216C545.73,-193.98 531.81,-174.57 516.34,-159.32"/>
<polygon fill="black" stroke="black" points="518.37,-156.42 508.66,-152.17 513.6,-161.55 518.37,-156.42"/>
</g>
<!-- EnemyTank&#45;&gt;ThreeD -->
<g id="edge9" class="edge">
<title>EnemyTank&#45;&gt;ThreeD</title>
<path fill="none" stroke="black" stroke-dasharray="5,2" d="M568.8,-281.91C560.53,-264.14 551.31,-240.38 548.5,-218"/>
</g>
<!-- Math -->
<g id="node6" class="node">
<title>Math</title>
<polygon fill="none" stroke="black" stroke-dasharray="5,2" points="460,-58 333,-58 333,-54 329,-54 329,-50 333,-50 333,-8 329,-8 329,-4 333,-4 333,0 460,0 460,-58"/>
<polyline fill="none" stroke="black" stroke-dasharray="5,2" points="333,-54 337,-54 337,-50 333,-50 "/>
<polyline fill="none" stroke="black" stroke-dasharray="5,2" points="333,-8 337,-8 337,-4 333,-4 "/>
<text text-anchor="middle" x="396.5" y="-32.8" font-family="Arial" font-size="14.00">Math</text>
<text text-anchor="middle" x="396.5" y="-17.8" font-family="Arial" font-size="14.00">(Built&#45;in Library)</text>
</g>
<!-- Physics -->
<g id="node7" class="node">
<title>Physics</title>
<polygon fill="none" stroke="black" stroke-dasharray="5,2" points="605,-58 478,-58 478,-54 474,-54 474,-50 478,-50 478,-8 474,-8 474,-4 478,-4 478,0 605,0 605,-58"/>
<polyline fill="none" stroke="black" stroke-dasharray="5,2" points="478,-54 482,-54 482,-50 478,-50 "/>
<polyline fill="none" stroke="black" stroke-dasharray="5,2" points="478,-8 482,-8 482,-4 478,-4 "/>
<text text-anchor="middle" x="541.5" y="-32.8" font-family="Arial" font-size="14.00">Physics</text>
<text text-anchor="middle" x="541.5" y="-17.8" font-family="Arial" font-size="14.00">(Built&#45;in Library)</text>
</g>
<!-- ThreeD&#45;&gt;Math -->
<g id="edge11" class="edge">
<title>ThreeD&#45;&gt;Math</title>
<path fill="none" stroke="black" stroke-dasharray="5,2" d="M446.51,-93.9C439.66,-85.15 432.02,-75.38 424.8,-66.17"/>
<polygon fill="black" stroke="black" points="427.53,-63.97 418.61,-58.25 422.01,-68.28 427.53,-63.97"/>
</g>
<!-- ThreeD&#45;&gt;Physics -->
<g id="edge12" class="edge">
<title>ThreeD&#45;&gt;Physics</title>
<path fill="none" stroke="black" stroke-dasharray="5,2" d="M490.8,-93.9C497.74,-85.15 505.49,-75.38 512.8,-66.17"/>
<polygon fill="black" stroke="black" points="515.61,-68.26 519.09,-58.25 510.13,-63.91 515.61,-68.26"/>
</g>
<!-- ThreeDTerrain&#45;&gt;ThreeD -->
<g id="edge10" class="edge">
<title>ThreeDTerrain&#45;&gt;ThreeD</title>
<path fill="none" stroke="black" stroke-dasharray="5,2" d="M436.55,-187.9C440.75,-179.5 445.42,-170.17 449.86,-161.29"/>
<polygon fill="black" stroke="black" points="453.03,-162.76 454.38,-152.25 446.77,-159.63 453.03,-162.76"/>
</g>
</g>
</svg>
