<?xml version="1.0" encoding="UTF-8" standalone="no"?>
<!DOCTYPE svg PUBLIC "-//W3C//DTD SVG 1.1//EN"
 "http://www.w3.org/Graphics/SVG/1.1/DTD/svg11.dtd">
<!-- Generated by graphviz version 2.47.3 (20210619.1520)
 -->
<!-- Title: SeedBlockInterModuleView Pages: 1 -->
<svg width="638pt" height="607pt"
 viewBox="0.00 0.00 638.00 607.00" xmlns="http://www.w3.org/2000/svg" xmlns:xlink="http://www.w3.org/1999/xlink">
<g id="graph0" class="graph" transform="scale(1 1) rotate(0) translate(4 603)">
<title>SeedBlockInterModuleView</title>
<polygon fill="white" stroke="transparent" points="-4,4 -4,-603 634,-603 634,4 -4,4"/>
<!-- Docked1 -->
<g id="node1" class="node">
<title>Docked1</title>
<polygon fill="none" stroke="black" points="264.5,-599 82.5,-599 82.5,-541 264.5,-541 264.5,-599"/>
<text text-anchor="middle" x="173.5" y="-573.8" font-family="Arial" font-size="14.00">Docked Statement Block</text>
<text text-anchor="middle" x="173.5" y="-558.8" font-family="Arial" font-size="14.00">(Root Block)</text>
</g>
<!-- Docked2 -->
<g id="node2" class="node">
<title>Docked2</title>
<polygon fill="none" stroke="black" points="0,-188.5 0,-489.5 347,-489.5 347,-188.5 0,-188.5"/>
<text text-anchor="middle" x="46" y="-350.3" font-family="Arial" font-size="14.00">Docked</text>
<text text-anchor="middle" x="46" y="-335.3" font-family="Arial" font-size="14.00">Statement</text>
<text text-anchor="middle" x="46" y="-320.3" font-family="Arial" font-size="14.00">Block</text>
<polyline fill="none" stroke="black" points="92,-188.5 92,-489.5 "/>
<text text-anchor="middle" x="145.5" y="-464.3" font-family="Arial" font-size="14.00">Input Slot #0</text>
<polyline fill="none" stroke="black" points="199,-446.5 199,-489.5 "/>
<text text-anchor="middle" x="273" y="-464.3" font-family="Arial" font-size="14.00">Expression Block 1</text>
<polyline fill="none" stroke="black" points="92,-446.5 347,-446.5 "/>
<text text-anchor="middle" x="145.5" y="-421.3" font-family="Arial" font-size="14.00">Input Slot #1</text>
<polyline fill="none" stroke="black" points="199,-403.5 199,-446.5 "/>
<text text-anchor="middle" x="273" y="-421.3" font-family="Arial" font-size="14.00">Expression Block 2</text>
<polyline fill="none" stroke="black" points="92,-403.5 347,-403.5 "/>
<text text-anchor="middle" x="143" y="-364.3" font-family="Arial" font-size="14.00">Statement</text>
<text text-anchor="middle" x="143" y="-349.3" font-family="Arial" font-size="14.00">Slot #0</text>
<polyline fill="none" stroke="black" points="194,-317.5 194,-403.5 "/>
<text text-anchor="middle" x="270.5" y="-378.3" font-family="Arial" font-size="14.00">Statement Block 1</text>
<polyline fill="none" stroke="black" points="194,-360.5 347,-360.5 "/>
<text text-anchor="middle" x="270.5" y="-335.3" font-family="Arial" font-size="14.00">Statement Block 2</text>
<polyline fill="none" stroke="black" points="92,-317.5 347,-317.5 "/>
<text text-anchor="middle" x="143" y="-256.8" font-family="Arial" font-size="14.00">Statement</text>
<text text-anchor="middle" x="143" y="-241.8" font-family="Arial" font-size="14.00">Slot #1</text>
<polyline fill="none" stroke="black" points="194,-188.5 194,-317.5 "/>
<text text-anchor="middle" x="270.5" y="-292.3" font-family="Arial" font-size="14.00">Statement Block 3</text>
<polyline fill="none" stroke="black" points="194,-274.5 347,-274.5 "/>
<text text-anchor="middle" x="270.5" y="-249.3" font-family="Arial" font-size="14.00">Statement Block 4</text>
<polyline fill="none" stroke="black" points="194,-231.5 347,-231.5 "/>
<text text-anchor="middle" x="270.5" y="-206.3" font-family="Arial" font-size="14.00">Statement Block 5</text>
</g>
<!-- Docked1&#45;&gt;Docked2 -->
<g id="edge1" class="edge">
<title>Docked1&#45;&gt;Docked2</title>
<path fill="none" stroke="black" stroke-dasharray="1,5" d="M173.5,-540.92C173.5,-529.51 173.5,-515.35 173.5,-499.88"/>
<polygon fill="black" stroke="black" points="177,-499.54 173.5,-489.54 170,-499.54 177,-499.54"/>
<text text-anchor="start" x="173.5" y="-512.8" font-family="Arial" font-style="italic" font-size="14.00">Next Statement</text>
</g>
<!-- Docked3 -->
<g id="node3" class="node">
<title>Docked3</title>
<polygon fill="none" stroke="black" points="264.5,-137 82.5,-137 82.5,-94 264.5,-94 264.5,-137"/>
<text text-anchor="middle" x="173.5" y="-111.8" font-family="Arial" font-size="14.00">Docked Statement Block</text>
</g>
<!-- Docked2&#45;&gt;Docked3 -->
<g id="edge2" class="edge">
<title>Docked2&#45;&gt;Docked3</title>
<path fill="none" stroke="black" stroke-dasharray="1,5" d="M173.5,-188.41C173.5,-173.22 173.5,-159.15 173.5,-147.55"/>
<polygon fill="black" stroke="black" points="177,-147.23 173.5,-137.23 170,-147.23 177,-147.23"/>
<text text-anchor="start" x="173.5" y="-159.8" font-family="Arial" font-style="italic" font-size="14.00">Next Statement</text>
</g>
<!-- Docked4 -->
<g id="node4" class="node">
<title>Docked4</title>
<polygon fill="none" stroke="black" points="264.5,-43 82.5,-43 82.5,0 264.5,0 264.5,-43"/>
<text text-anchor="middle" x="173.5" y="-17.8" font-family="Arial" font-size="14.00">Docked Statement Block</text>
</g>
<!-- Docked3&#45;&gt;Docked4 -->
<g id="edge3" class="edge">
<title>Docked3&#45;&gt;Docked4</title>
<path fill="none" stroke="black" stroke-dasharray="1,5" d="M173.5,-93.62C173.5,-81.74 173.5,-66.64 173.5,-53.41"/>
<polygon fill="black" stroke="black" points="177,-53.29 173.5,-43.29 170,-53.29 177,-53.29"/>
<text text-anchor="start" x="173.5" y="-65.8" font-family="Arial" font-style="italic" font-size="14.00">Next Statement</text>
</g>
<!-- StandaloneStatement -->
<g id="node5" class="node">
<title>StandaloneStatement</title>
<polygon fill="none" stroke="black" points="627,-599 422,-599 422,-541 627,-541 627,-599"/>
<text text-anchor="middle" x="524.5" y="-573.8" font-family="Arial" font-size="14.00">Standalone Statement Block</text>
<text text-anchor="middle" x="524.5" y="-558.8" font-family="Arial" font-size="14.00">(Root Block)</text>
</g>
<!-- StandaloneExpression -->
<g id="node6" class="node">
<title>StandaloneExpression</title>
<polygon fill="none" stroke="black" points="630,-368 419,-368 419,-310 630,-310 630,-368"/>
<text text-anchor="middle" x="524.5" y="-342.8" font-family="Arial" font-size="14.00">Standalone Expression Block</text>
<text text-anchor="middle" x="524.5" y="-327.8" font-family="Arial" font-size="14.00">(Root Block)</text>
</g>
<!-- StandaloneStatement&#45;&gt;StandaloneExpression -->
<g id="edge4" class="edge">
<title>StandaloneStatement&#45;&gt;StandaloneExpression</title>
</g>
</g>
</svg>
