<svg xmlns="http://www.w3.org/2000/svg" version="1.1" xmlns:xlink="http://www.w3.org/1999/xlink" xmlns:svgjs="http://svgjs.dev/svgjs" width="391" height="242"><g><polygon points="30,34 50,34 55,30 70,30 75,34 167,34 167,84 101,84 96,80 81,80 76,84 50,84 50,202 76,202 81,198 96,198 101,202 121,202 121,212 75,212 70,208 55,208 50,212 30,212" fill="#0066cc"></polygon><text font-family="Courier" font-size="14px" text-anchor="middle" fill="#ffffff" x="59" y="64" svgjs:data="{&quot;leading&quot;:&quot;1em&quot;}"><tspan dy="0" x="59" svgjs:data="{&quot;newLined&quot;:true}">if</tspan></text><g><rect width="87" height="38" fill="#cccc66" rx="6" ry="6" x="74" y="40"></rect><g><polygon points="80,52 86,46 95,46 101,52 101,66 95,72 86,72 80,66" fill="#3399ff"></polygon><text font-family="Courier" font-size="14px" text-anchor="middle" fill="#ffffff" x="90.5" y="64" svgjs:data="{&quot;leading&quot;:&quot;1em&quot;}"><tspan dy="0" x="90.5" svgjs:data="{&quot;newLined&quot;:true}">x</tspan></text></g><g><polygon points="107,52 113,46 122,46 128,52 128,66 122,72 113,72 107,66" fill="#99ccff"></polygon><text font-family="Courier" font-size="14px" text-anchor="middle" fill="#000000" x="117.5" y="64" svgjs:data="{&quot;leading&quot;:&quot;1em&quot;}"><tspan dy="0" x="117.5" svgjs:data="{&quot;newLined&quot;:true}">&gt;</tspan></text></g><g><rect width="21" height="26" fill="#669900" rx="6" ry="6" x="134" y="46"></rect><text font-family="Courier" font-size="14px" text-anchor="middle" fill="#ffffff" x="144.5" y="64" svgjs:data="{&quot;leading&quot;:&quot;1em&quot;}"><tspan dy="0" x="144.5" svgjs:data="{&quot;newLined&quot;:true}">3</tspan></text></g></g><g><polygon points="56,90 76,90 81,86 96,86 101,90 361,90 361,140 101,140 96,136 81,136 76,140 56,140" fill="#99ccff"></polygon><text font-family="Courier" font-size="14px" text-anchor="middle" fill="#000000" x="89.5" y="120" svgjs:data="{&quot;leading&quot;:&quot;1em&quot;}"><tspan dy="0" x="89.5" svgjs:data="{&quot;newLined&quot;:true}">set</tspan></text><g><polygon points="109,108 115,102 178,102 184,108 184,122 178,128 115,128 109,122" fill="#3399ff"></polygon><text font-family="Courier" font-size="14px" text-anchor="middle" fill="#ffffff" x="146.5" y="120" svgjs:data="{&quot;leading&quot;:&quot;1em&quot;}"><tspan dy="0" x="146.5" svgjs:data="{&quot;newLined&quot;:true}">counter</tspan></text></g><text font-family="Courier" font-size="14px" text-anchor="middle" fill="#000000" x="199" y="120" svgjs:data="{&quot;leading&quot;:&quot;1em&quot;}"><tspan dy="0" x="199" svgjs:data="{&quot;newLined&quot;:true}">to</tspan></text><g><rect width="141" height="38" fill="#cccc66" rx="6" ry="6" x="214" y="96"></rect><g><polygon points="220,108 226,102 289,102 295,108 295,122 289,128 226,128 220,122" fill="#3399ff"></polygon><text font-family="Courier" font-size="14px" text-anchor="middle" fill="#ffffff" x="257.5" y="120" svgjs:data="{&quot;leading&quot;:&quot;1em&quot;}"><tspan dy="0" x="257.5" svgjs:data="{&quot;newLined&quot;:true}">counter</tspan></text></g><g><polygon points="301,108 307,102 316,102 322,108 322,122 316,128 307,128 301,122" fill="#99ccff"></polygon><text font-family="Courier" font-size="14px" text-anchor="middle" fill="#000000" x="311.5" y="120" svgjs:data="{&quot;leading&quot;:&quot;1em&quot;}"><tspan dy="0" x="311.5" svgjs:data="{&quot;newLined&quot;:true}">+</tspan></text></g><g><rect width="21" height="26" fill="#669900" rx="6" ry="6" x="328" y="102"></rect><text font-family="Courier" font-size="14px" text-anchor="middle" fill="#ffffff" x="338.5" y="120" svgjs:data="{&quot;leading&quot;:&quot;1em&quot;}"><tspan dy="0" x="338.5" svgjs:data="{&quot;newLined&quot;:true}">1</tspan></text></g></g></g><g><polygon points="56,146 76,146 81,142 96,142 101,146 253,146 253,196 101,196 96,192 81,192 76,196 56,196" fill="#99ccff"></polygon><text font-family="Courier" font-size="14px" text-anchor="middle" fill="#000000" x="89.5" y="176" svgjs:data="{&quot;leading&quot;:&quot;1em&quot;}"><tspan dy="0" x="89.5" svgjs:data="{&quot;newLined&quot;:true}">set</tspan></text><g><polygon points="109,164 115,158 124,158 130,164 130,178 124,184 115,184 109,178" fill="#3399ff"></polygon><text font-family="Courier" font-size="14px" text-anchor="middle" fill="#ffffff" x="119.5" y="176" svgjs:data="{&quot;leading&quot;:&quot;1em&quot;}"><tspan dy="0" x="119.5" svgjs:data="{&quot;newLined&quot;:true}">x</tspan></text></g><text font-family="Courier" font-size="14px" text-anchor="middle" fill="#000000" x="145" y="176" svgjs:data="{&quot;leading&quot;:&quot;1em&quot;}"><tspan dy="0" x="145" svgjs:data="{&quot;newLined&quot;:true}">to</tspan></text><g><rect width="87" height="38" fill="#cccc66" rx="6" ry="6" x="160" y="152"></rect><g><polygon points="166,164 172,158 181,158 187,164 187,178 181,184 172,184 166,178" fill="#3399ff"></polygon><text font-family="Courier" font-size="14px" text-anchor="middle" fill="#ffffff" x="176.5" y="176" svgjs:data="{&quot;leading&quot;:&quot;1em&quot;}"><tspan dy="0" x="176.5" svgjs:data="{&quot;newLined&quot;:true}">x</tspan></text></g><g><polygon points="193,164 199,158 208,158 214,164 214,178 208,184 199,184 193,178" fill="#99ccff"></polygon><text font-family="Courier" font-size="14px" text-anchor="middle" fill="#000000" x="203.5" y="176" svgjs:data="{&quot;leading&quot;:&quot;1em&quot;}"><tspan dy="0" x="203.5" svgjs:data="{&quot;newLined&quot;:true}">-</tspan></text></g><g><rect width="21" height="26" fill="#669900" rx="6" ry="6" x="220" y="158"></rect><text font-family="Courier" font-size="14px" text-anchor="middle" fill="#ffffff" x="230.5" y="176" svgjs:data="{&quot;leading&quot;:&quot;1em&quot;}"><tspan dy="0" x="230.5" svgjs:data="{&quot;newLined&quot;:true}">1</tspan></text></g></g></g></g></svg>