<svg xmlns="http://www.w3.org/2000/svg" version="1.1" xmlns:xlink="http://www.w3.org/1999/xlink" xmlns:svgjs="http://svgjs.dev/svgjs" width="391" height="274"><g><polygon points="30,34 50,34 55,30 70,30 75,34 167,34 167,84 101,84 96,80 81,80 76,84 50,84 50,146 76,146 81,142 96,142 101,146 126,146 126,172 101,172 96,168 81,168 76,172 50,172 50,234 76,234 81,230 96,230 101,234 126,234 126,244 75,244 70,240 55,240 50,244 30,244" fill="#0066cc"></polygon><text font-family="Courier" font-size="14px" text-anchor="middle" fill="#ffffff" x="59" y="64" svgjs:data="{&quot;leading&quot;:&quot;1em&quot;}"><tspan dy="0" x="59" svgjs:data="{&quot;newLined&quot;:true}">if</tspan></text><g><rect width="87" height="38" fill="#cccc66" rx="6" ry="6" x="74" y="40"></rect><g><polygon points="80,52 86,46 95,46 101,52 101,66 95,72 86,72 80,66" fill="#3399ff"></polygon><text font-family="Courier" font-size="14px" text-anchor="middle" fill="#ffffff" x="90.5" y="64" svgjs:data="{&quot;leading&quot;:&quot;1em&quot;}"><tspan dy="0" x="90.5" svgjs:data="{&quot;newLined&quot;:true}">x</tspan></text></g><g><polygon points="107,52 113,46 122,46 128,52 128,66 122,72 113,72 107,66" fill="#99ccff"></polygon><text font-family="Courier" font-size="14px" text-anchor="middle" fill="#000000" x="117.5" y="64" svgjs:data="{&quot;leading&quot;:&quot;1em&quot;}"><tspan dy="0" x="117.5" svgjs:data="{&quot;newLined&quot;:true}">&gt;</tspan></text></g><g><rect width="21" height="26" fill="#669900" rx="6" ry="6" x="134" y="46"></rect><text font-family="Courier" font-size="14px" text-anchor="middle" fill="#ffffff" x="144.5" y="64" svgjs:data="{&quot;leading&quot;:&quot;1em&quot;}"><tspan dy="0" x="144.5" svgjs:data="{&quot;newLined&quot;:true}">3</tspan></text></g></g><g><polygon points="56,90 76,90 81,86 96,86 101,90 361,90 361,140 101,140 96,136 81,136 76,140 56,140" fill="#99ccff"></polygon><text font-family="Courier" font-size="14px" text-anchor="middle" fill="#000000" x="89.5" y="120" svgjs:data="{&quot;leading&quot;:&quot;1em&quot;}"><tspan dy="0" x="89.5" svgjs:data="{&quot;newLined&quot;:true}">set</tspan></text><g><polygon points="109,108 115,102 178,102 184,108 184,122 178,128 115,128 109,122" fill="#3399ff"></polygon><text font-family="Courier" font-size="14px" text-anchor="middle" fill="#ffffff" x="146.5" y="120" svgjs:data="{&quot;leading&quot;:&quot;1em&quot;}"><tspan dy="0" x="146.5" svgjs:data="{&quot;newLined&quot;:true}">counter</tspan></text></g><text font-family="Courier" font-size="14px" text-anchor="middle" fill="#000000" x="199" y="120" svgjs:data="{&quot;leading&quot;:&quot;1em&quot;}"><tspan dy="0" x="199" svgjs:data="{&quot;newLined&quot;:true}">to</tspan></text><g><rect width="141" height="38" fill="#cccc66" rx="6" ry="6" x="214" y="96"></rect><g><polygon points="220,108 226,102 289,102 295,108 295,122 289,128 226,128 220,122" fill="#3399ff"></polygon><text font-family="Courier" font-size="14px" text-anchor="middle" fill="#ffffff" x="257.5" y="120" svgjs:data="{&quot;leading&quot;:&quot;1em&quot;}"><tspan dy="0" x="257.5" svgjs:data="{&quot;newLined&quot;:true}">counter</tspan></text></g><g><polygon points="301,108 307,102 316,102 322,108 322,122 316,128 307,128 301,122" fill="#99ccff"></polygon><text font-family="Courier" font-size="14px" text-anchor="middle" fill="#000000" x="311.5" y="120" svgjs:data="{&quot;leading&quot;:&quot;1em&quot;}"><tspan dy="0" x="311.5" svgjs:data="{&quot;newLined&quot;:true}">+</tspan></text></g><g><rect width="21" height="26" fill="#669900" rx="6" ry="6" x="328" y="102"></rect><text font-family="Courier" font-size="14px" text-anchor="middle" fill="#ffffff" x="338.5" y="120" svgjs:data="{&quot;leading&quot;:&quot;1em&quot;}"><tspan dy="0" x="338.5" svgjs:data="{&quot;newLined&quot;:true}">1</tspan></text></g></g></g><text font-family="Courier" font-size="14px" text-anchor="middle" fill="#ffffff" x="68" y="164" svgjs:data="{&quot;leading&quot;:&quot;1em&quot;}"><tspan dy="0" x="68" svgjs:data="{&quot;newLined&quot;:true}">else</tspan></text><g><polygon points="56,178 76,178 81,174 96,174 101,178 361,178 361,228 101,228 96,224 81,224 76,228 56,228" fill="#99ccff"></polygon><text font-family="Courier" font-size="14px" text-anchor="middle" fill="#000000" x="89.5" y="208" svgjs:data="{&quot;leading&quot;:&quot;1em&quot;}"><tspan dy="0" x="89.5" svgjs:data="{&quot;newLined&quot;:true}">set</tspan></text><g><polygon points="109,196 115,190 178,190 184,196 184,210 178,216 115,216 109,210" fill="#3399ff"></polygon><text font-family="Courier" font-size="14px" text-anchor="middle" fill="#ffffff" x="146.5" y="208" svgjs:data="{&quot;leading&quot;:&quot;1em&quot;}"><tspan dy="0" x="146.5" svgjs:data="{&quot;newLined&quot;:true}">counter</tspan></text></g><text font-family="Courier" font-size="14px" text-anchor="middle" fill="#000000" x="199" y="208" svgjs:data="{&quot;leading&quot;:&quot;1em&quot;}"><tspan dy="0" x="199" svgjs:data="{&quot;newLined&quot;:true}">to</tspan></text><g><rect width="141" height="38" fill="#cccc66" rx="6" ry="6" x="214" y="184"></rect><g><polygon points="220,196 226,190 289,190 295,196 295,210 289,216 226,216 220,210" fill="#3399ff"></polygon><text font-family="Courier" font-size="14px" text-anchor="middle" fill="#ffffff" x="257.5" y="208" svgjs:data="{&quot;leading&quot;:&quot;1em&quot;}"><tspan dy="0" x="257.5" svgjs:data="{&quot;newLined&quot;:true}">counter</tspan></text></g><g><polygon points="301,196 307,190 316,190 322,196 322,210 316,216 307,216 301,210" fill="#99ccff"></polygon><text font-family="Courier" font-size="14px" text-anchor="middle" fill="#000000" x="311.5" y="208" svgjs:data="{&quot;leading&quot;:&quot;1em&quot;}"><tspan dy="0" x="311.5" svgjs:data="{&quot;newLined&quot;:true}">-</tspan></text></g><g><rect width="21" height="26" fill="#669900" rx="6" ry="6" x="328" y="190"></rect><text font-family="Courier" font-size="14px" text-anchor="middle" fill="#ffffff" x="338.5" y="208" svgjs:data="{&quot;leading&quot;:&quot;1em&quot;}"><tspan dy="0" x="338.5" svgjs:data="{&quot;newLined&quot;:true}">1</tspan></text></g></g></g></g></svg>