<svg xmlns="http://www.w3.org/2000/svg" version="1.1" xmlns:xlink="http://www.w3.org/1999/xlink" xmlns:svgjs="http://svgjs.dev/svgjs" width="338" height="114"><g><polygon points="30,34 50,34 55,30 70,30 75,34 308,34 308,84 75,84 70,80 55,80 50,84 30,84" fill="#99ccff"></polygon><text font-family="Courier" font-size="14px" text-anchor="middle" fill="#000000" x="63.5" y="64" svgjs:data="{&quot;leading&quot;:&quot;1em&quot;}"><tspan dy="0" x="63.5" svgjs:data="{&quot;newLined&quot;:true}">set</tspan></text><g><polygon points="83,52 89,46 152,46 158,52 158,66 152,72 89,72 83,66" fill="#3399ff"></polygon><text font-family="Courier" font-size="14px" text-anchor="middle" fill="#ffffff" x="120.5" y="64" svgjs:data="{&quot;leading&quot;:&quot;1em&quot;}"><tspan dy="0" x="120.5" svgjs:data="{&quot;newLined&quot;:true}">counter</tspan></text></g><text font-family="Courier" font-size="14px" text-anchor="middle" fill="#000000" x="173" y="64" svgjs:data="{&quot;leading&quot;:&quot;1em&quot;}"><tspan dy="0" x="173" svgjs:data="{&quot;newLined&quot;:true}">to</tspan></text><g><rect width="114" height="38" fill="#cccc66" rx="6" ry="6" x="188" y="40"></rect><g><polygon points="194,52 200,46 209,46 215,52 215,66 209,72 200,72 194,66" fill="#3399ff"></polygon><text font-family="Courier" font-size="14px" text-anchor="middle" fill="#ffffff" x="204.5" y="64" svgjs:data="{&quot;leading&quot;:&quot;1em&quot;}"><tspan dy="0" x="204.5" svgjs:data="{&quot;newLined&quot;:true}">x</tspan></text></g><g><polygon points="221,52 227,46 236,46 242,52 242,66 236,72 227,72 221,66" fill="#99ccff"></polygon><text font-family="Courier" font-size="14px" text-anchor="middle" fill="#000000" x="231.5" y="64" svgjs:data="{&quot;leading&quot;:&quot;1em&quot;}"><tspan dy="0" x="231.5" svgjs:data="{&quot;newLined&quot;:true}">+</tspan></text></g><g><rect width="48" height="26" fill="#669900" rx="6" ry="6" x="248" y="46"></rect><text font-family="Courier" font-size="14px" text-anchor="middle" fill="#ffffff" x="272" y="64" svgjs:data="{&quot;leading&quot;:&quot;1em&quot;}"><tspan dy="0" x="272" svgjs:data="{&quot;newLined&quot;:true}">3.14</tspan></text></g></g></g></svg>